<?xml version="1.0" standalone="no"?>
<!DOCTYPE svg PUBLIC "-//W3C//DTD SVG 20010904//EN"
 "http://www.w3.org/TR/2001/REC-SVG-20010904/DTD/svg10.dtd">
<svg version="1.0" xmlns="http://www.w3.org/2000/svg"
 width="400.000000pt" height="153.000000pt" viewBox="0 0 400.000000 153.000000"
 preserveAspectRatio="xMidYMid meet">

<g transform="translate(0.000000,153.000000) scale(0.100000,-0.100000)"
fill="#000000" stroke="none">
<path d="M780 1435 c0 -19 4 -35 8 -35 4 0 6 16 4 35 -2 19 -6 35 -8 35 -2 0
-4 -16 -4 -35z"/>
<path d="M1016 1455 c4 -11 2 -14 -9 -9 -8 3 -18 1 -21 -4 -3 -5 2 -9 11 -8
25 2 27 -22 1 -27 -20 -4 -20 -4 5 -6 24 -1 27 3 27 28 0 17 -4 33 -10 36 -6
3 -7 -1 -4 -10z"/>
<path d="M1450 1460 c0 -5 7 -7 15 -4 8 4 15 8 15 10 0 2 -7 4 -15 4 -8 0 -15
-4 -15 -10z"/>
<path d="M51 1428 c1 -18 3 -25 6 -15 2 9 9 14 15 11 6 -4 5 2 -1 15 -16 29
-21 26 -20 -11z"/>
<path d="M86 1433 c10 -40 14 -41 14 -5 0 18 -5 32 -10 32 -6 0 -8 -11 -4 -27z"/>
<path d="M113 1434 c-3 -8 -1 -20 5 -26 8 -8 9 -5 5 11 -6 24 14 29 37 9 12
-11 12 -10 1 5 -17 21 -40 22 -48 1z"/>
<path d="M180 1423 c0 -12 4 -23 10 -23 5 0 7 6 4 14 -3 8 -1 17 5 21 6 3 15
-4 20 -17 6 -13 10 -16 10 -8 1 22 -12 37 -31 37 -12 0 -18 -8 -18 -24z"/>
<path d="M250 1440 c0 -5 5 -10 10 -10 6 0 10 5 10 10 0 6 -4 10 -10 10 -5 0
-10 -4 -10 -10z"/>
<path d="M334 1442 c19 -8 19 -9 -2 -14 -22 -6 -31 -28 -11 -28 5 0 7 5 4 10
-3 6 1 10 10 10 9 0 13 -4 10 -10 -3 -5 -1 -10 5 -10 20 0 6 45 -15 47 -19 3
-19 3 -1 -5z"/>
<path d="M388 1421 c3 -16 7 -20 10 -11 2 8 11 20 18 26 12 9 10 12 -9 12 -20
0 -23 -4 -19 -27z"/>
<path d="M534 1442 c19 -8 19 -9 -2 -14 -30 -8 -28 -28 4 -28 21 0 25 4 22 22
-2 14 -11 24 -23 25 -19 3 -19 3 -1 -5z m13 -28 c-3 -3 -12 -4 -19 -1 -8 3 -5
6 6 6 11 1 17 -2 13 -5z"/>
<path d="M650 1440 c0 -5 5 -10 10 -10 6 0 10 5 10 10 0 6 -4 10 -10 10 -5 0
-10 -4 -10 -10z"/>
<path d="M734 1442 c19 -8 19 -9 -2 -14 -22 -6 -31 -28 -11 -28 5 0 7 5 4 10
-3 6 1 10 10 10 9 0 13 -4 10 -10 -3 -5 -1 -10 5 -10 20 0 6 45 -15 47 -19 3
-19 3 -1 -5z"/>
<path d="M848 1423 c5 -21 7 -23 10 -9 2 10 0 22 -6 28 -6 6 -7 0 -4 -19z"/>
<path d="M875 1425 c0 -14 3 -25 8 -25 4 0 7 11 7 25 0 14 -3 25 -7 25 -5 0
-8 -11 -8 -25z"/>
<path d="M928 1441 c11 -7 11 -9 -2 -14 -25 -10 -19 -27 9 -27 14 0 25 4 25 9
0 22 -13 41 -29 41 -12 0 -13 -2 -3 -9z m19 -27 c-3 -3 -12 -4 -19 -1 -8 3 -5
6 6 6 11 1 17 -2 13 -5z"/>
<path d="M1065 1441 c16 -8 17 -10 3 -10 -22 -1 -32 -17 -17 -27 8 -4 9 -3 5
4 -4 7 -1 12 9 12 9 0 13 -4 10 -10 -3 -5 -1 -10 5 -10 20 0 6 45 -15 47 l-20
3 20 -9z"/>
<path d="M1180 1435 c-16 -19 -4 -35 26 -35 14 0 23 4 20 9 -3 5 -16 7 -27 4
-16 -4 -20 -2 -17 8 3 8 13 13 22 13 9 -1 16 2 16 7 0 14 -26 10 -40 -6z"/>
<path d="M1253 1443 c-16 -6 -17 -29 -1 -39 7 -4 8 -3 4 4 -5 8 1 12 14 12 12
0 20 5 18 12 -5 14 -18 18 -35 11z"/>
<path d="M817 1421 c-4 -17 -3 -21 5 -13 5 5 8 16 6 23 -3 8 -7 3 -11 -10z"/>
<path d="M1463 1433 c12 -3 16 -10 12 -21 -5 -13 -3 -14 6 -5 14 14 3 33 -19
32 -15 -1 -14 -2 1 -6z"/>
<path d="M70 1296 c0 -2 7 -9 15 -16 9 -7 15 -8 15 -2 0 5 -7 12 -15 16 -8 3
-15 4 -15 2z"/>
<path d="M933 1288 c-19 -25 -24 -38 -14 -38 5 0 12 8 15 18 3 9 4 5 2 -10 -2
-16 1 -28 5 -28 5 0 9 16 9 35 0 38 -3 41 -17 23z"/>
<path d="M114 1265 c-8 -19 3 -35 26 -35 19 0 30 17 23 38 -6 17 -42 15 -49
-3z m39 -10 c1 -5 -6 -11 -15 -13 -11 -2 -18 3 -18 13 0 17 30 18 33 0z"/>
<path d="M175 1255 c0 -31 15 -33 16 -2 1 21 1 21 9 -3 8 -25 8 -25 9 -2 1 13
6 20 11 17 6 -3 10 -1 10 4 0 6 -12 11 -27 11 -23 0 -28 -4 -28 -25z"/>
<path d="M248 1268 c-8 -22 3 -38 25 -37 21 0 21 1 2 9 -19 8 -19 9 3 9 14 1
22 6 20 14 -6 17 -44 21 -50 5z m39 -4 c-3 -3 -12 -4 -19 -1 -8 3 -5 6 6 6 11
1 17 -2 13 -5z"/>
<path d="M313 1264 c-8 -20 10 -37 33 -31 16 4 15 5 -3 6 -14 1 -23 7 -23 17
0 11 6 15 20 11 11 -3 20 -1 20 4 0 16 -40 10 -47 -7z"/>
<path d="M404 1264 c20 -19 20 -24 0 -24 -8 0 -12 5 -9 10 3 6 1 10 -4 10 -6
0 -11 -7 -11 -15 0 -9 9 -15 25 -15 14 0 25 4 25 9 0 21 -13 41 -27 41 -12 0
-12 -2 1 -16z"/>
<path d="M454 1271 c3 -5 15 -7 26 -4 28 7 25 13 -6 13 -14 0 -23 -4 -20 -9z"/>
<path d="M580 1246 c0 -20 5 -36 11 -36 5 0 8 4 5 9 -3 5 4 11 15 14 28 7 21
41 -9 45 -19 3 -22 -1 -22 -32z m40 9 c0 -8 -7 -15 -15 -15 -8 0 -15 7 -15 15
0 8 7 15 15 15 8 0 15 -7 15 -15z"/>
<path d="M644 1265 c-4 -9 -2 -21 4 -27 16 -16 47 -5 47 17 0 26 -42 34 -51
10z m46 -10 c0 -8 -9 -15 -20 -15 -11 0 -20 7 -20 15 0 8 9 15 20 15 11 0 20
-7 20 -15z"/>
<path d="M717 1253 c-3 -18 0 -23 17 -23 17 0 18 2 6 10 -13 9 -13 12 4 25 18
13 18 14 -2 12 -13 -1 -22 -10 -25 -24z"/>
<path d="M795 1270 c-3 -5 -1 -10 4 -10 6 0 11 5 11 10 0 6 -2 10 -4 10 -3 0
-8 -4 -11 -10z"/>
<path d="M53 1250 c2 -8 12 -16 23 -17 13 -2 15 -1 4 4 -8 3 -19 11 -23 17 -6
7 -7 6 -4 -4z"/>
<path d="M795 1240 c-3 -5 -1 -10 4 -10 6 0 11 5 11 10 0 6 -2 10 -4 10 -3 0
-8 -4 -11 -10z"/>
<path d="M458 1233 c7 -3 16 -2 19 1 4 3 -2 6 -13 5 -11 0 -14 -3 -6 -6z"/>
<path d="M59 1121 c8 -5 12 -19 9 -35 -3 -16 -1 -26 7 -26 7 0 10 12 8 33 -3
24 -2 29 6 17 9 -13 11 -13 11 3 0 12 -8 17 -27 17 -20 0 -24 -3 -14 -9z"/>
<path d="M923 1123 c9 -2 23 -2 30 0 6 3 -1 5 -18 5 -16 0 -22 -2 -12 -5z"/>
<path d="M114 1095 c-8 -19 4 -35 24 -34 14 1 14 2 -1 6 -13 3 -17 11 -14 24
6 22 -1 26 -9 4z"/>
<path d="M188 1085 c-4 -20 -1 -25 16 -24 11 0 15 3 9 6 -19 7 -16 31 5 36 13
4 13 5 -4 6 -16 1 -23 -6 -26 -24z"/>
<path d="M252 1103 c9 -2 19 -14 21 -26 4 -20 4 -20 7 3 l2 25 8 -25 8 -25 1
28 c1 24 -2 27 -31 26 -18 -1 -25 -3 -16 -6z"/>
<path d="M415 1084 c0 -13 3 -24 8 -24 4 0 7 9 7 19 0 11 -3 22 -7 24 -5 3 -8
-6 -8 -19z"/>
<path d="M453 1094 c0 -7 6 -10 14 -7 7 3 13 -2 13 -11 0 -9 4 -16 9 -16 4 0
6 11 4 24 -5 25 -40 34 -40 10z"/>
<path d="M518 1085 c-4 -20 -1 -25 16 -24 11 0 15 3 9 6 -19 7 -16 31 5 36 13
4 13 5 -4 6 -16 1 -23 -6 -26 -24z"/>
<path d="M647 1102 c-11 -16 10 -42 32 -41 14 1 14 2 -1 6 -9 2 -18 14 -20 26
-2 16 -5 18 -11 9z"/>
<path d="M680 1100 c0 -5 5 -10 11 -10 5 0 7 5 4 10 -3 6 -8 10 -11 10 -2 0
-4 -4 -4 -10z"/>
<path d="M711 1083 c1 -23 2 -24 7 -8 10 29 39 31 45 3 5 -21 5 -21 4 2 -2 19
-8 26 -29 28 -25 3 -28 0 -27 -25z"/>
<path d="M795 1100 c3 -5 8 -10 11 -10 2 0 4 5 4 10 0 6 -5 10 -11 10 -5 0 -7
-4 -4 -10z"/>
<path d="M936 1095 c-3 -9 -6 -22 -5 -28 0 -7 5 -1 10 12 5 13 8 26 5 28 -2 2
-6 -3 -10 -12z"/>
<path d="M325 1070 c-4 -6 3 -10 14 -10 25 0 27 6 6 13 -8 4 -17 2 -20 -3z"/>
<path d="M380 1070 c0 -5 5 -10 11 -10 5 0 7 5 4 10 -3 6 -8 10 -11 10 -2 0
-4 -4 -4 -10z"/>
<path d="M795 1070 c3 -5 8 -10 11 -10 2 0 4 5 4 10 0 6 -5 10 -11 10 -5 0 -7
-4 -4 -10z"/>
<path d="M1045 763 c0 -30 3 -34 25 -31 35 4 37 33 3 50 -28 14 -28 14 -28
-19z m45 -8 c0 -8 -7 -15 -15 -15 -8 0 -15 7 -15 15 0 8 7 15 15 15 8 0 15 -7
15 -15z"/>
<path d="M1281 794 c0 -7 -10 -14 -21 -17 -23 -6 -27 -35 -6 -43 30 -12 41 0
35 36 -4 19 -7 30 -8 24z m-1 -39 c0 -8 -7 -15 -15 -15 -8 0 -15 7 -15 15 0 8
7 15 15 15 8 0 15 -7 15 -15z"/>
<path d="M1474 791 c3 -5 -4 -11 -15 -14 -28 -7 -21 -41 9 -45 19 -3 22 1 22
32 0 20 -5 36 -11 36 -5 0 -8 -4 -5 -9z m6 -36 c0 -8 -7 -15 -15 -15 -8 0 -15
7 -15 15 0 8 7 15 15 15 8 0 15 -7 15 -15z"/>
<path d="M1651 778 c0 -16 2 -18 6 -8 3 8 11 18 17 22 7 5 4 8 -6 8 -12 0 -18
-7 -17 -22z"/>
<path d="M2274 791 c3 -5 -3 -11 -14 -14 -31 -8 -27 -47 5 -47 22 0 25 4 25
35 0 19 -5 35 -11 35 -5 0 -8 -4 -5 -9z m4 -39 c2 -7 -3 -12 -12 -12 -9 0 -16
7 -16 16 0 17 22 14 28 -4z"/>
<path d="M2656 784 c-3 -9 -2 -12 5 -9 6 4 7 -3 3 -19 -4 -16 -2 -26 5 -26 13
0 15 56 2 64 -5 3 -12 -1 -15 -10z"/>
<path d="M3840 796 c0 -2 9 -6 20 -9 11 -3 20 -1 20 4 0 5 -9 9 -20 9 -11 0
-20 -2 -20 -4z"/>
<path d="M56 758 l16 -32 14 25 c18 33 17 51 -1 19 l-15 -25 -6 23 c-3 12 -10
22 -15 22 -5 0 -2 -14 7 -32z"/>
<path d="M516 782 c-8 -15 14 -52 31 -51 17 1 17 2 1 6 -20 5 -24 29 -6 35 8
3 6 7 -5 11 -9 3 -18 3 -21 -1z"/>
<path d="M917 784 c-2 -2 -2 -16 1 -29 3 -18 10 -25 26 -24 17 1 17 2 4 6 -20
5 -24 29 -6 35 8 3 6 6 -4 10 -9 4 -18 5 -21 2z"/>
<path d="M2906 782 c-8 -15 14 -52 31 -51 17 1 17 2 1 6 -20 5 -24 29 -6 35 8
3 6 7 -5 11 -9 3 -18 3 -21 -1z"/>
<path d="M114 765 c-8 -19 3 -35 26 -35 22 0 33 23 17 39 -15 15 -37 14 -43
-4z m39 -10 c1 -5 -6 -11 -15 -13 -11 -2 -18 3 -18 13 0 17 30 18 33 0z"/>
<path d="M184 755 c1 -28 46 -34 46 -6 0 11 -4 22 -9 25 -5 4 -7 -3 -4 -14 4
-14 0 -20 -10 -20 -9 0 -17 8 -20 18 -3 13 -4 12 -3 -3z"/>
<path d="M311 753 c2 -24 2 -25 6 -5 5 28 35 26 45 -3 6 -17 7 -16 5 5 -2 19
-8 26 -29 28 -25 3 -28 0 -27 -25z"/>
<path d="M384 765 c-4 -9 -2 -21 4 -27 15 -15 44 -1 40 19 -4 23 -36 29 -44 8z
m36 -10 c0 -8 -7 -15 -15 -15 -8 0 -15 7 -15 15 0 8 7 15 15 15 8 0 15 -7 15
-15z"/>
<path d="M449 753 c5 -26 6 -26 9 -5 4 27 22 29 22 2 0 -11 4 -20 9 -20 4 0 6
11 3 25 -3 18 -11 25 -27 25 -19 0 -21 -4 -16 -27z"/>
<path d="M600 770 c13 -8 12 -10 -2 -10 -10 0 -18 -7 -18 -15 0 -9 9 -15 24
-15 19 0 22 4 18 25 -2 15 -11 25 -21 25 -14 0 -14 -2 -1 -10z"/>
<path d="M657 764 c3 -9 9 -11 12 -6 3 5 13 12 21 15 9 3 4 6 -12 6 -21 1 -26
-3 -21 -15z"/>
<path d="M795 770 c17 -7 17 -9 3 -9 -28 -1 -22 -31 6 -31 19 0 22 4 18 25 -3
18 -11 25 -26 24 -20 0 -20 -1 -1 -9z"/>
<path d="M1000 770 c13 -8 12 -10 -2 -10 -10 0 -18 -7 -18 -15 0 -9 9 -15 24
-15 19 0 22 4 18 25 -2 15 -11 25 -21 25 -14 0 -14 -2 -1 -10z"/>
<path d="M1114 755 c1 -13 8 -20 24 -21 17 -1 18 -1 3 3 -11 2 -22 12 -24 21
-3 12 -4 11 -3 -3z"/>
<path d="M1195 770 c17 -7 17 -9 3 -9 -28 -1 -22 -31 6 -31 19 0 22 4 18 25
-3 18 -11 25 -26 24 -20 0 -20 -1 -1 -9z"/>
<path d="M1330 770 c13 -8 12 -10 -2 -10 -10 0 -18 -7 -18 -15 0 -10 9 -15 28
-14 l27 1 -25 8 c-17 5 -19 8 -7 9 9 1 17 8 17 16 0 8 -8 15 -17 15 -15 0 -16
-2 -3 -10z"/>
<path d="M1517 774 c-4 -4 -7 -16 -7 -26 0 -13 7 -18 28 -17 l27 1 -25 8 c-25
8 -25 8 -2 9 14 1 22 6 20 14 -5 14 -31 21 -41 11z m30 -10 c-3 -3 -12 -4 -19
-1 -8 3 -5 6 6 6 11 1 17 -2 13 -5z"/>
<path d="M1773 764 c-8 -20 10 -37 33 -31 16 4 15 5 -3 6 -14 1 -23 7 -23 17
0 11 6 15 20 11 11 -3 20 -1 20 4 0 16 -40 10 -47 -7z"/>
<path d="M1844 765 c-4 -9 -2 -21 4 -27 15 -15 44 -1 40 19 -4 23 -36 29 -44
8z m36 -10 c0 -8 -7 -15 -15 -15 -8 0 -15 7 -15 15 0 8 7 15 15 15 8 0 15 -7
15 -15z"/>
<path d="M1912 773 c9 -2 19 -14 21 -26 4 -20 4 -20 7 3 l2 25 8 -25 8 -25 1
28 c1 24 -2 27 -31 26 -18 -1 -25 -3 -16 -6z"/>
<path d="M1974 765 c-8 -21 4 -35 29 -34 20 1 20 2 -3 9 -24 8 -24 8 -2 9 28
1 30 31 2 31 -11 0 -23 -7 -26 -15z"/>
<path d="M2043 764 c-3 -9 3 -24 17 -37 13 -12 20 -17 16 -10 -3 6 0 14 6 16
7 3 3 6 -9 6 -14 1 -23 7 -23 17 0 11 6 15 20 11 11 -3 20 -1 20 4 0 16 -40
10 -47 -7z"/>
<path d="M2125 770 l20 -9 -20 -1 -20 -1 20 -8 20 -8 -20 -5 c-16 -5 -15 -6 6
-7 23 -1 26 2 21 24 -3 18 -11 25 -26 24 -20 0 -20 -1 -1 -9z"/>
<path d="M2177 764 c4 -11 8 -13 11 -6 6 19 20 14 25 -8 4 -17 4 -16 3 2 -1
16 -8 24 -23 26 -18 3 -22 0 -16 -14z"/>
<path d="M2306 763 c-6 -14 -5 -16 5 -5 17 16 39 15 39 -2 0 -8 -9 -17 -20
-19 -17 -4 -16 -4 2 -3 16 1 23 7 23 21 0 26 -40 33 -49 8z"/>
<path d="M2447 774 c-4 -4 -7 -16 -7 -26 0 -13 7 -18 28 -17 l27 1 -25 8 c-25
8 -25 8 -2 9 14 1 22 6 20 14 -5 14 -31 21 -41 11z m30 -10 c-3 -3 -12 -4 -19
-1 -8 3 -5 6 6 6 11 1 17 -2 13 -5z"/>
<path d="M2500 756 c0 -14 4 -26 9 -26 5 0 7 9 4 21 -5 16 -2 20 13 17 11 -2
22 -12 26 -23 6 -17 7 -16 5 5 -2 19 -8 26 -29 28 -24 3 -28 0 -28 -22z"/>
<path d="M2774 766 c-8 -22 4 -36 29 -35 20 1 20 2 -3 9 -25 8 -25 8 -2 9 14
1 22 6 20 14 -7 18 -37 21 -44 3z m33 -2 c-3 -3 -12 -4 -19 -1 -8 3 -5 6 6 6
11 1 17 -2 13 -5z"/>
<path d="M2974 766 c-8 -22 4 -36 29 -35 20 1 20 2 -3 9 -25 8 -25 8 -2 9 14
1 22 6 20 14 -7 18 -37 21 -44 3z m33 -2 c-3 -3 -12 -4 -19 -1 -8 3 -5 6 6 6
11 1 17 -2 13 -5z"/>
<path d="M3045 755 c0 -19 5 -25 20 -24 11 0 14 3 8 6 -7 2 -13 13 -13 24 0
10 -3 19 -7 19 -5 0 -8 -11 -8 -25z"/>
<path d="M3100 756 c0 -14 4 -26 9 -26 5 0 7 9 4 21 -5 16 -2 20 13 17 11 -2
22 -12 26 -23 6 -17 7 -16 5 5 -2 19 -8 26 -29 28 -24 3 -28 0 -28 -22z"/>
<path d="M3187 764 c3 -9 0 -20 -8 -25 -10 -6 -5 -9 16 -8 17 0 24 3 18 6 -7
2 -13 13 -13 24 0 10 -4 19 -10 19 -5 0 -7 -7 -3 -16z"/>
<path d="M3241 753 c2 -24 2 -25 6 -5 5 27 23 29 23 2 0 -11 4 -20 9 -20 4 0
6 11 3 25 -7 37 -42 35 -41 -2z"/>
<path d="M3324 772 c19 -8 19 -9 -3 -15 -27 -7 -19 -27 10 -27 28 0 22 44 -6
47 -19 3 -19 3 -1 -5z m13 -28 c-3 -3 -12 -4 -19 -1 -8 3 -5 6 6 6 11 1 17 -2
13 -5z"/>
<path d="M3370 755 c0 -14 4 -25 9 -25 5 0 7 9 4 19 -3 13 1 21 14 24 15 4 14
5 -4 6 -18 1 -23 -4 -23 -24z"/>
<path d="M3440 765 c-16 -19 -4 -35 26 -35 14 0 23 4 20 9 -3 5 -16 7 -27 4
-16 -4 -20 -2 -17 8 3 8 13 13 22 13 9 -1 16 2 16 7 0 14 -26 10 -40 -6z"/>
<path d="M3504 766 c-8 -21 3 -36 27 -36 15 0 20 6 17 22 -4 27 -35 37 -44 14z
m36 -11 c0 -8 -7 -15 -15 -15 -8 0 -15 7 -15 15 0 8 7 15 15 15 8 0 15 -7 15
-15z"/>
<path d="M3634 765 c-8 -21 4 -35 29 -34 20 1 20 2 -3 9 -24 8 -24 8 -2 9 28
1 30 31 2 31 -11 0 -23 -7 -26 -15z"/>
<path d="M3701 753 l1 -28 8 25 c8 24 8 24 9 3 1 -13 5 -23 11 -23 5 0 7 7 3
16 -3 9 0 20 8 25 10 6 6 9 -13 9 -24 0 -28 -4 -27 -27z"/>
<path d="M1675 758 c4 -11 0 -18 -12 -21 -15 -4 -16 -5 -1 -6 22 -1 33 18 19
32 -9 9 -11 8 -6 -5z"/>
<path d="M3856 755 c-9 -26 -7 -32 5 -12 6 10 9 21 6 23 -2 3 -7 -2 -11 -11z"/>
<path d="M3406 745 c-3 -8 -1 -15 4 -15 6 0 10 7 10 15 0 8 -2 15 -4 15 -2 0
-6 -7 -10 -15z"/>
<path d="M658 733 c7 -3 16 -2 19 1 4 3 -2 6 -13 5 -11 0 -14 -3 -6 -6z"/>
<path d="M50 616 c0 -7 10 -16 23 -19 20 -6 21 -5 4 8 -18 13 -18 13 0 18 14
4 14 5 -4 6 -14 1 -23 -5 -23 -13z"/>
<path d="M180 622 c0 -6 5 -14 11 -18 8 -4 8 -9 0 -17 -14 -14 -14 -27 0 -27
5 0 7 5 4 10 -3 6 -1 10 4 10 6 0 11 -4 11 -10 0 -5 5 -10 10 -10 7 0 7 6 1
18 -6 11 -6 24 0 35 7 11 6 17 -1 17 -5 0 -10 -5 -10 -11 0 -8 -5 -8 -15 1 -9
8 -15 9 -15 2z"/>
<path d="M337 624 c-3 -3 -3 -13 0 -22 4 -10 2 -13 -5 -8 -7 4 -12 2 -12 -3 0
-6 5 -11 11 -11 5 0 7 -4 4 -10 -3 -5 0 -10 9 -10 11 0 13 8 9 33 -6 36 -7 39
-16 31z"/>
<path d="M600 620 c12 -8 12 -11 -3 -28 -23 -25 -21 -32 6 -32 16 0 18 3 8 9
-9 6 -10 11 -2 15 18 11 13 46 -6 46 -15 0 -16 -2 -3 -10z"/>
<path d="M654 616 c-9 -23 0 -51 16 -51 10 0 15 10 15 29 0 32 -21 47 -31 22z
m26 -21 c0 -14 -4 -25 -10 -25 -5 0 -10 11 -10 25 0 14 5 25 10 25 6 0 10 -11
10 -25z"/>
<path d="M458 603 c6 -2 18 -2 25 0 6 3 1 5 -13 5 -14 0 -19 -2 -12 -5z"/>
<path d="M458 583 c6 -2 18 -2 25 0 6 3 1 5 -13 5 -14 0 -19 -2 -12 -5z"/>
<path d="M65 570 c-19 -8 -19 -9 3 -9 12 -1 22 4 22 9 0 6 -1 10 -2 9 -2 0
-12 -4 -23 -9z"/>
<path d="M50 446 c0 -7 9 -16 20 -19 11 -3 20 -1 20 4 0 5 -7 9 -16 9 -8 0
-12 5 -9 10 3 6 1 10 -4 10 -6 0 -11 -6 -11 -14z"/>
<path d="M189 442 c7 -13 6 -23 -2 -32 -10 -12 -9 -12 6 -1 11 9 17 10 17 2 0
-6 5 -11 11 -11 8 0 8 5 -1 15 -10 12 -10 18 0 30 8 9 8 15 2 15 -6 0 -13 -6
-15 -12 -4 -10 -6 -10 -6 0 -1 6 -6 12 -11 12 -7 0 -7 -6 -1 -18z"/>
<path d="M320 445 c0 -8 7 -15 15 -15 8 0 15 -8 16 -17 0 -12 2 -14 6 -5 3 8
-4 22 -16 33 -17 16 -21 17 -21 4z"/>
<path d="M610 450 c0 -7 -7 -22 -17 -32 -9 -10 -12 -18 -6 -18 13 0 38 48 30
57 -4 3 -7 0 -7 -7z"/>
<path d="M650 445 c0 -8 7 -15 15 -15 18 0 20 -26 3 -33 -10 -4 -10 -6 0 -6
23 -2 25 29 3 50 -17 16 -21 17 -21 4z"/>
<path d="M458 433 c6 -2 18 -2 25 0 6 3 1 5 -13 5 -14 0 -19 -2 -12 -5z"/>
<path d="M70 400 c-9 -6 -10 -10 -3 -10 6 0 15 5 18 10 8 12 4 12 -15 0z"/>
<path d="M57 293 c-15 -14 -6 -33 16 -32 16 1 18 2 5 6 -10 2 -18 8 -18 13 0
5 8 11 18 13 14 4 14 5 1 6 -9 0 -19 -2 -22 -6z"/>
<path d="M332 288 c-20 -20 -15 -58 8 -58 23 0 27 28 5 36 -12 5 -13 10 -4 20
14 17 7 18 -9 2z m18 -38 c0 -5 -4 -10 -10 -10 -5 0 -10 5 -10 10 0 6 5 10 10
10 6 0 10 -4 10 -10z"/>
<path d="M599 292 c7 -5 11 -14 7 -20 -3 -6 -1 -14 5 -17 7 -5 9 1 7 16 -1 12
-10 24 -18 26 -12 4 -13 3 -1 -5z"/>
<path d="M654 286 c-9 -24 0 -51 19 -54 15 -3 18 2 15 29 -3 35 -24 51 -34 25z
m26 -21 c0 -14 -4 -25 -10 -25 -5 0 -10 11 -10 25 0 14 5 25 10 25 6 0 10 -11
10 -25z"/>
<path d="M190 275 c10 -12 10 -18 0 -30 -8 -9 -8 -15 -2 -15 6 0 13 6 15 13 4
10 6 10 6 0 1 -7 6 -13 12 -13 8 0 8 5 -1 15 -10 12 -10 18 0 30 8 9 8 15 2
15 -6 0 -13 -6 -15 -12 -4 -10 -6 -10 -6 0 -1 6 -6 12 -12 12 -8 0 -8 -5 1
-15z"/>
<path d="M458 253 c6 -2 18 -2 25 0 6 3 1 5 -13 5 -14 0 -19 -2 -12 -5z"/>
<path d="M588 233 c6 -2 18 -2 25 0 6 3 1 5 -13 5 -14 0 -19 -2 -12 -5z"/>
<path d="M50 116 c0 -7 10 -16 23 -19 20 -6 21 -5 4 8 -18 13 -18 13 0 18 14
4 14 5 -4 6 -14 1 -23 -5 -23 -13z"/>
<path d="M320 126 c0 -2 9 -6 20 -9 11 -3 20 -1 20 4 0 5 -9 9 -20 9 -11 0
-20 -2 -20 -4z"/>
<path d="M595 122 c18 -12 15 -50 -3 -55 -12 -3 -10 -5 6 -6 19 -1 22 4 22 34
0 27 -4 35 -17 35 -11 0 -14 -3 -8 -8z"/>
<path d="M650 115 c0 -8 5 -15 11 -15 5 0 8 4 4 9 -3 5 3 12 12 14 14 4 13 5
-4 6 -14 1 -23 -5 -23 -14z"/>
<path d="M185 110 c3 -5 8 -10 11 -10 2 0 4 5 4 10 0 6 -5 10 -11 10 -5 0 -7
-4 -4 -10z"/>
<path d="M204 102 c-9 -13 -8 -20 2 -30 19 -18 26 -15 15 6 -7 13 -6 23 1 30
7 7 8 12 2 12 -5 0 -14 -8 -20 -18z"/>
<path d="M458 103 c6 -2 18 -2 25 0 6 3 1 5 -13 5 -14 0 -19 -2 -12 -5z"/>
<path d="M336 85 c-9 -26 -7 -32 5 -12 6 10 9 21 6 23 -2 3 -7 -2 -11 -11z"/>
<path d="M680 87 c0 -8 -8 -18 -17 -20 -17 -4 -17 -5 0 -6 18 -1 35 25 23 36
-3 4 -6 -1 -6 -10z"/>
<path d="M458 83 c6 -2 18 -2 25 0 6 3 1 5 -13 5 -14 0 -19 -2 -12 -5z"/>
<path d="M65 70 c-19 -8 -19 -9 3 -9 12 -1 22 4 22 9 0 6 -1 10 -2 9 -2 0 -12
-4 -23 -9z"/>
</g>
</svg>
